<?xml version="1.0" encoding="UTF-8" standalone="no"?>
<!-- Created with Inkscape (http://www.inkscape.org/) -->

<svg
   version="1.1"
   id="svg2"
   xml:space="preserve"
   width="392.9751"
   height="392.9751"
   viewBox="0 0 560 560"
   sodipodi:docname="logo.svg"
   inkscape:version="1.4 (e7c3feb100, 2024-10-09)"
   xmlns:inkscape="http://www.inkscape.org/namespaces/inkscape"
   xmlns:sodipodi="http://sodipodi.sourceforge.net/DTD/sodipodi-0.dtd"
   xmlns="http://www.w3.org/2000/svg"
   xmlns:svg="http://www.w3.org/2000/svg"
   xmlns:rdf="http://www.w3.org/1999/02/22-rdf-syntax-ns#"
   xmlns:cc="http://creativecommons.org/ns#"
   xmlns:dc="http://purl.org/dc/elements/1.1/"><metadata
     id="metadata8"><rdf:RDF><cc:Work
         rdf:about=""><dc:format>image/svg+xml</dc:format><dc:type
           rdf:resource="http://purl.org/dc/dcmitype/StillImage" /></cc:Work></rdf:RDF></metadata><defs
     id="defs6"><clipPath
       clipPathUnits="userSpaceOnUse"
       id="clipPath18"><path
         d="M 0,361.333 H 361.333 V 0 H 0 Z"
         id="path16"
         inkscape:connector-curvature="0" /></clipPath><clipPath
       clipPathUnits="userSpaceOnUse"
       id="clipPath32"><path
         d="M 0,361.333 H 361.333 V 0 H 0 Z"
         id="path30"
         inkscape:connector-curvature="0" /></clipPath><clipPath
       clipPathUnits="userSpaceOnUse"
       id="clipPath40"><path
         d="M 0,361.333 H 361.333 V 0 H 0 Z"
         id="path38"
         inkscape:connector-curvature="0" /></clipPath><clipPath
       clipPathUnits="userSpaceOnUse"
       id="clipPath62"><path
         d="M 0,361.333 H 361.333 V 0 H 0 Z"
         id="path60"
         inkscape:connector-curvature="0" /></clipPath></defs><sodipodi:namedview
     pagecolor="#ffffff"
     bordercolor="#666666"
     borderopacity="1"
     objecttolerance="10"
     gridtolerance="10"
     guidetolerance="10"
     inkscape:pageopacity="0"
     inkscape:pageshadow="2"
     inkscape:window-width="1920"
     inkscape:window-height="1122"
     id="namedview4"
     showgrid="false"
     fit-margin-top="3"
     fit-margin-left="3"
     fit-margin-right="3"
     fit-margin-bottom="3"
     inkscape:zoom="0.97970571"
     inkscape:cx="156.6797"
     inkscape:cy="260.7926"
     inkscape:window-x="0"
     inkscape:window-y="50"
     inkscape:window-maximized="1"
     inkscape:current-layer="g10"
     inkscape:snap-bbox="true"
     inkscape:bbox-paths="false"
     inkscape:bbox-nodes="false"
     inkscape:snap-bbox-edge-midpoints="false"
     inkscape:snap-bbox-midpoints="false"
     inkscape:snap-page="true"
     inkscape:pagecheckerboard="0"
     width="500px"
     inkscape:showpageshadow="2"
     inkscape:deskcolor="#d1d1d1" /><g
     id="g10"
     inkscape:groupmode="layer"
     inkscape:label="Bison@"
     transform="matrix(1.3333333,0,0,-1.3333333,-91.264626,375.15443)"><g
       id="g1"
       transform="translate(3.68807,-25.123083)"><circle
         style="fill:#f2f2f2;stroke-width:6.85145"
         id="path1"
         cx="274.76041"
         cy="-96.488907"
         r="206.31194"
         transform="scale(1,-1)" /><g
         id="g1204"
         transform="matrix(1.1216852,0,0,1.1216852,72.109299,-127.59687)"><g
           transform="translate(151.7199,54.3948)"
           id="g48"><path
             inkscape:connector-curvature="0"
             id="path50"
             style="fill:#281206;fill-opacity:1;fill-rule:nonzero;stroke:none"
             d="m 0,0 h 64.196 l 5.598,-11.197 -15.451,2.239 5.852,-10.898 -16.452,8.808 -4.33,-17.318 L 31.65,-12.69 18.064,-25.828 17.952,-9.853 5.375,-20.005 7.285,-6.27 -5.386,-9.011 Z" /></g><g
           transform="translate(148.2342,54.3948)"
           id="g52"><path
             inkscape:connector-curvature="0"
             id="path54"
             style="fill:#42210b;fill-opacity:1;fill-rule:nonzero;stroke:none"
             d="m 0,0 h 64.196 l 5.598,-11.197 -15.451,2.239 5.852,-10.898 -16.452,8.808 -4.33,-17.318 L 31.65,-12.69 18.064,-25.828 17.952,-9.853 5.375,-20.005 7.285,-6.27 -5.386,-9.011 Z" /></g><g
           transform="translate(285.4709,331.3127)"
           id="g64"><path
             inkscape:connector-curvature="0"
             id="path66"
             style="fill:#423a36;fill-opacity:1;fill-rule:nonzero;stroke:none"
             d="m 0,0 c 0,0 62.703,-53.745 -17.467,-79.275 l -2.803,-42.55 c 0,0 57.509,27.787 66.402,58.674 C 51.357,-45.002 47.438,-13.66 0,0" /></g><g
           transform="translate(280.8056,256.8658)"
           id="g68"><path
             inkscape:connector-curvature="0"
             id="path70"
             style="fill:none;stroke:#cccccc;stroke-width:1;stroke-linecap:butt;stroke-linejoin:miter;stroke-miterlimit:10;stroke-dasharray:none;stroke-opacity:1"
             d="M 0,0 C 0,0 -1.469,-10.661 12.646,-13.599" /></g><g
           transform="translate(290.7532,262.1203)"
           id="g72"><path
             inkscape:connector-curvature="0"
             id="path74"
             style="fill:none;stroke:#cccccc;stroke-width:1;stroke-linecap:butt;stroke-linejoin:miter;stroke-miterlimit:10;stroke-dasharray:none;stroke-opacity:1"
             d="M 0,0 C 1.301,-2.992 4.487,-6.94 12.285,-7.723" /></g><g
           transform="translate(300.9226,270.3986)"
           id="g76"><path
             inkscape:connector-curvature="0"
             id="path78"
             style="fill:none;stroke:#cccccc;stroke-width:1;stroke-linecap:butt;stroke-linejoin:miter;stroke-miterlimit:10;stroke-dasharray:none;stroke-opacity:1"
             d="M 0,0 C 1.878,-2.437 5.378,-5.061 11.703,-4.869" /></g><g
           transform="translate(307.9656,283.11)"
           id="g80"><path
             inkscape:connector-curvature="0"
             id="path82"
             style="fill:none;stroke:#cccccc;stroke-width:1;stroke-linecap:butt;stroke-linejoin:miter;stroke-miterlimit:10;stroke-dasharray:none;stroke-opacity:1"
             d="M 0,0 C 0,0 3.843,-8.447 14.247,-6.45" /></g><g
           transform="translate(332.7242,287.6391)"
           id="g84"><path
             inkscape:connector-curvature="0"
             id="path86"
             style="fill:#2d2a29;fill-opacity:1;fill-rule:nonzero;stroke:none"
             d="M 0,0 C 0.04,-0.772 0.048,-1.555 0.023,-2.347 -0.53,-19.528 -16.9,-41.4 -66.839,-67.762 l -0.684,-10.389 c 0,0 57.509,27.787 66.401,58.674 1.57,5.453 2.315,12.097 1.301,19.094" /></g><g
           transform="translate(88.6803,213.1174)"
           id="g88"><path
             inkscape:connector-curvature="0"
             id="path90"
             style="fill:#42210b;fill-opacity:1;fill-rule:nonzero;stroke:none"
             d="m 0,0 c 0,0 -50.312,-31.053 -73.601,-19.408 0,0 32.349,-50.164 81.215,-30.157 C 56.48,-29.558 0,0 0,0" /></g><g
           transform="translate(14.5104,193.9972)"
           id="g92"><path
             inkscape:connector-curvature="0"
             id="path94"
             style="fill:#281206;fill-opacity:1;fill-rule:nonzero;stroke:none"
             d="M 0,0 C 0,0 97.179,-47.349 98.949,1.266 100.718,49.882 74.89,13.611 74.89,13.611 74.89,13.611 23.795,-12.643 0,0" /></g><g
           transform="translate(15.0789,193.7094)"
           id="g96"><path
             inkscape:connector-curvature="0"
             id="path98"
             style="fill:#754c24;fill-opacity:1;fill-rule:nonzero;stroke:none"
             d="M 0,0 C 0,0 100.575,-39.628 98.549,8.977 96.523,57.582 73.601,19.408 73.601,19.408 73.601,19.408 24.708,-10.749 0,0" /></g><g
           transform="translate(272.653,213.1174)"
           id="g100"><path
             inkscape:connector-curvature="0"
             id="path102"
             style="fill:#42210b;fill-opacity:1;fill-rule:nonzero;stroke:none"
             d="m 0,0 c 0,0 50.312,-31.053 73.601,-19.408 0,0 -32.349,-50.164 -81.215,-30.157 C -56.48,-29.558 0,0 0,0" /></g><g
           transform="translate(346.8229,193.9972)"
           id="g104"><path
             inkscape:connector-curvature="0"
             id="path106"
             style="fill:#281206;fill-opacity:1;fill-rule:nonzero;stroke:none"
             d="m 0,0 c 0,0 -97.179,-47.349 -98.949,1.266 -1.769,48.616 24.059,12.345 24.059,12.345 0,0 51.095,-26.254 74.89,-13.611" /></g><g
           transform="translate(346.2544,193.7094)"
           id="g108"><path
             inkscape:connector-curvature="0"
             id="path110"
             style="fill:#754c24;fill-opacity:1;fill-rule:nonzero;stroke:none"
             d="m 0,0 c 0,0 -100.575,-39.628 -98.549,8.977 2.026,48.605 24.948,10.431 24.948,10.431 0,0 48.893,-30.157 73.601,-19.408" /></g><g
           transform="translate(75.8624,331.3127)"
           id="g112"><path
             inkscape:connector-curvature="0"
             id="path114"
             style="fill:#423a36;fill-opacity:1;fill-rule:nonzero;stroke:none"
             d="m 0,0 c 0,0 -62.703,-53.745 17.467,-79.275 l 2.803,-42.55 c 0,0 -57.509,27.787 -66.402,58.674 C -51.357,-45.002 -47.438,-13.66 0,0" /></g><g
           transform="translate(80.5277,256.8658)"
           id="g116"><path
             inkscape:connector-curvature="0"
             id="path118"
             style="fill:none;stroke:#cccccc;stroke-width:1;stroke-linecap:butt;stroke-linejoin:miter;stroke-miterlimit:10;stroke-dasharray:none;stroke-opacity:1"
             d="M 0,0 C 0,0 1.469,-10.661 -12.646,-13.599" /></g><g
           transform="translate(70.5801,262.1203)"
           id="g120"><path
             inkscape:connector-curvature="0"
             id="path122"
             style="fill:none;stroke:#cccccc;stroke-width:1;stroke-linecap:butt;stroke-linejoin:miter;stroke-miterlimit:10;stroke-dasharray:none;stroke-opacity:1"
             d="M 0,0 C -1.301,-2.992 -4.487,-6.94 -12.285,-7.723" /></g><g
           transform="translate(60.4107,270.3986)"
           id="g124"><path
             inkscape:connector-curvature="0"
             id="path126"
             style="fill:none;stroke:#cccccc;stroke-width:1;stroke-linecap:butt;stroke-linejoin:miter;stroke-miterlimit:10;stroke-dasharray:none;stroke-opacity:1"
             d="M 0,0 C -1.878,-2.437 -5.378,-5.061 -11.703,-4.869" /></g><g
           transform="translate(53.3678,283.11)"
           id="g128"><path
             inkscape:connector-curvature="0"
             id="path130"
             style="fill:none;stroke:#cccccc;stroke-width:1;stroke-linecap:butt;stroke-linejoin:miter;stroke-miterlimit:10;stroke-dasharray:none;stroke-opacity:1"
             d="M 0,0 C 0,0 -3.843,-8.447 -14.247,-6.45" /></g><g
           transform="translate(28.6092,287.6391)"
           id="g132"><path
             inkscape:connector-curvature="0"
             id="path134"
             style="fill:#2d2a29;fill-opacity:1;fill-rule:nonzero;stroke:none"
             d="M 0,0 C -0.04,-0.772 -0.048,-1.555 -0.023,-2.347 0.53,-19.528 16.9,-41.4 66.839,-67.762 l 0.684,-10.389 c 0,0 -57.509,27.787 -66.401,58.674 -1.57,5.453 -2.315,12.097 -1.301,19.094" /></g><g
           transform="translate(262.4003,59.9689)"
           id="g136"><path
             inkscape:connector-curvature="0"
             id="path138"
             style="fill:#42210b;fill-opacity:1;fill-rule:nonzero;stroke:none"
             d="m 0,0 -46.789,-5.55 h -69.659 L -163.924,0 c -5.912,0 -10.749,4.837 -10.749,10.749 v 193.196 c 0,5.912 4.837,10.75 10.749,10.75 H 0 c 5.912,0 10.749,-4.838 10.749,-10.75 V 10.749 C 10.749,4.837 5.912,0 0,0" /></g><g
           transform="translate(273.2098,192.1383)"
           id="g140"><path
             inkscape:connector-curvature="0"
             id="path142"
             style="fill:#754c24;fill-opacity:1;fill-rule:nonzero;stroke:none"
             d="m 0,0 -0.06,7.871 v 2.925 0.588 0.936 59.456 c 0,5.912 -4.838,10.749 -10.75,10.749 h -75.146 -13.631 -75.146 c -5.912,0 -10.749,-4.837 -10.749,-10.749 V 12.32 11.384 10.796 7.871 L -185.543,0 c -0.289,0.01 -0.575,0.01 0,-0.031 25.183,-1.774 47.5,-22.544 47.5,-47.949 l 0.036,0.391 v -79.381 c 0,-5.912 4.837,-10.749 10.749,-10.749 h 27.671 13.631 27.671 c 5.912,0 10.749,4.837 10.749,10.749 v 79.381 l 0.037,-0.391 c 0,25.405 22.316,46.175 47.499,47.949 C 0.576,0.01 0.289,0.01 0,0" /></g><g
           transform="translate(146.3341,54.3948)"
           id="g144"><path
             inkscape:connector-curvature="0"
             id="path146"
             style="fill:#5b310e;fill-opacity:1;fill-rule:nonzero;stroke:none"
             d="M 0,0 C -5.912,0 -10.749,4.837 -10.749,10.749 V 90.13 l -0.036,-0.391 c 0,25.405 -22.699,46.2 -47.882,47.974 2.491,-0.176 2.782,-0.096 0,0 -0.289,0.01 -0.576,0.04 0,0 25.183,-1.774 44.045,-22.569 44.045,-47.974 l 0.036,0.391 V 10.749 c 0,-5.912 4.045,-9.537 9.727,-10.201 z" /></g><g
           transform="translate(214.9992,54.3948)"
           id="g148"><path
             inkscape:connector-curvature="0"
             id="path150"
             style="fill:#5b310e;fill-opacity:1;fill-rule:nonzero;stroke:none"
             d="M 0,0 C 5.912,0 10.749,4.837 10.749,10.749 V 90.13 l 0.036,-0.391 c 0,25.405 22.699,46.2 47.882,47.974 -2.491,-0.176 -2.782,-0.096 0,0 0.289,0.01 0.576,0.04 0,0 C 33.484,135.939 14.622,115.144 14.622,89.739 L 14.586,90.13 V 10.749 C 14.586,4.837 9.996,0.436 4.084,0.436 Z" /></g><g
           transform="translate(121.8387,151.8327)"
           id="g152"><path
             inkscape:connector-curvature="0"
             id="path154"
             style="fill:#ffffff;fill-opacity:1;fill-rule:nonzero;stroke:none"
             d="m 0,0 c 0,-6.914 -5.605,-12.519 -12.519,-12.519 -6.914,0 -12.518,5.605 -12.518,12.519 0,6.914 5.604,12.519 12.518,12.519 C -5.605,12.519 0,6.914 0,0" /></g><g
           transform="translate(116.5081,151.8327)"
           id="g156"><path
             inkscape:connector-curvature="0"
             id="path158"
             style="fill:#000000;fill-opacity:1;fill-rule:nonzero;stroke:none"
             d="m 0,0 c 0,-5.194 -4.211,-9.405 -9.405,-9.405 -5.195,0 -9.406,4.211 -9.406,9.405 0,5.194 4.211,9.405 9.406,9.405 C -4.211,9.405 0,5.194 0,0" /></g><g
           transform="translate(264.5319,151.8327)"
           id="g160"><path
             inkscape:connector-curvature="0"
             id="path162"
             style="fill:#ffffff;fill-opacity:1;fill-rule:nonzero;stroke:none"
             d="m 0,0 c 0,-6.914 -5.605,-12.519 -12.519,-12.519 -6.914,0 -12.518,5.605 -12.518,12.519 0,6.914 5.604,12.519 12.518,12.519 C -5.605,12.519 0,6.914 0,0" /></g><g
           transform="translate(259.2013,151.8327)"
           id="g164"><path
             inkscape:connector-curvature="0"
             id="path166"
             style="fill:#000000;fill-opacity:1;fill-rule:nonzero;stroke:none"
             d="m 0,0 c 0,-5.194 -4.211,-9.405 -9.405,-9.405 -5.195,0 -9.406,4.211 -9.406,9.405 0,5.194 4.211,9.405 9.406,9.405 C -4.211,9.405 0,5.194 0,0" /></g><g
           transform="translate(136.0552,274.2796)"
           id="g168"><path
             inkscape:connector-curvature="0"
             id="path170"
             style="fill:#281206;fill-opacity:1;fill-rule:nonzero;stroke:none"
             d="m 0,0 c -0.375,-0.054 -11.051,-4.221 -12.873,-4.915 -8.332,-3.171 -28.213,-11.525 -26.988,-11.31 1.493,0.261 43.939,3.329 43.939,3.329 l -1.241,-22.772 13.735,18.211 c 0,0 5.673,-30.157 5.673,-28.963 0,1.195 14.678,21.166 14.678,21.166 l 15.18,-38.265 v 41.285 l 28.366,-17.318 -11.346,27.47 36.128,-4.143 L 84.35,-8.499 129.138,-8.798 90.071,3.26 118.24,24.409 61.109,17.622 63.151,55.761 34.935,17.915 -8.734,43.22 10.476,12.979 c 0,0 -37.498,-3.862 -36.005,-3.862" /></g><g
           transform="translate(131.7913,275.2399)"
           id="g172"><path
             inkscape:connector-curvature="0"
             id="path174"
             style="fill:#42210b;fill-opacity:1;fill-rule:nonzero;stroke:none"
             d="m 0,0 c -0.37,-0.08 -10.726,-4.988 -12.496,-5.808 -8.088,-3.749 -27.332,-13.48 -26.125,-13.18 1.47,0.365 43.596,6.411 43.596,6.411 l 0.363,-22.803 12.42,19.132 c 0,0 7.78,-29.684 7.696,-28.492 -0.084,1.191 13.154,22.145 13.154,22.145 l 17.834,-37.103 -2.904,41.183 29.513,-15.28 -13.25,26.604 36.331,-1.592 -21.393,6.237 44.698,2.852 L 89.619,9.586 116.23,32.665 59.719,21.876 59.073,60.064 33.588,20.328 -11.752,42.499 9.538,13.683 c 0,0 -37.134,-6.489 -35.645,-6.384" /></g><g
           transform="translate(216.8658,107.9656)"
           id="g176"><path
             inkscape:connector-curvature="0"
             id="path178"
             style="fill:#5b310e;fill-opacity:1;fill-rule:nonzero;stroke:none"
             d="m 0,0 c 0,-10.348 -16.207,-18.737 -36.199,-18.737 -19.992,0 -36.199,8.389 -36.199,18.737 0,10.348 16.207,18.737 36.199,18.737 C -16.207,18.737 0,10.348 0,0" /></g><g
           transform="translate(216.576,109.6834)"
           id="g180"><path
             inkscape:connector-curvature="0"
             id="path182"
             style="fill:#42210b;fill-opacity:1;fill-rule:nonzero;stroke:none"
             d="m 0,0 c 0,-9.4 -16.142,-17.019 -36.054,-17.019 -19.912,0 -36.054,7.619 -36.054,17.019 0,9.4 16.142,17.019 36.054,17.019 C -16.142,17.019 0,9.4 0,0" /></g><g
           transform="translate(165.2904,109.6834)"
           id="g184"><path
             inkscape:connector-curvature="0"
             id="path186"
             style="fill:#000000;fill-opacity:1;fill-rule:nonzero;stroke:none"
             d="m 0,0 c 0,-2.945 -2.388,-5.333 -5.333,-5.333 -2.946,0 -5.333,2.388 -5.333,5.333 0,2.945 2.387,5.333 5.333,5.333 C -2.388,5.333 0,2.945 0,0" /></g><g
           transform="translate(206.4194,109.6834)"
           id="g188"><path
             inkscape:connector-curvature="0"
             id="path190"
             style="fill:#000000;fill-opacity:1;fill-rule:nonzero;stroke:none"
             d="m 0,0 c 0,-2.945 -2.388,-5.333 -5.333,-5.333 -2.946,0 -5.333,2.388 -5.333,5.333 0,2.945 2.387,5.333 5.333,5.333 C -2.388,5.333 0,2.945 0,0" /></g><g
           transform="translate(159.4855,87.1187)"
           id="g192"><path
             inkscape:connector-curvature="0"
             id="path194"
             style="fill:#42210b;fill-opacity:1;fill-rule:nonzero;stroke:none"
             d="M 0,0 C 0,-16.294 42.362,-16.294 42.362,0 30.655,-11.708 11.708,-11.708 0,0" /></g></g></g></g></svg>
